<mxfile host="app.diagrams.net" modified="2024-02-25T19:48:44.248Z" agent="Mozilla/5.0 (Windows NT 10.0; Win64; x64) AppleWebKit/537.36 (KHTML, like Gecko) Chrome/122.0.0.0 Safari/537.36" etag="3-sFTsZisfYTrSsnnzG6" version="23.1.6" type="github">
  <diagram name="Page-1" id="rWE4KOiw2Am1GK7l6f8t">
    <mxGraphModel dx="1195" dy="653" grid="1" gridSize="10" guides="1" tooltips="1" connect="1" arrows="1" fold="1" page="1" pageScale="1" pageWidth="827" pageHeight="1169" math="0" shadow="0">
      <root>
        <mxCell id="0" />
        <mxCell id="1" parent="0" />
        <mxCell id="XYXvDK_JES8hp7YrWyu7-4" value="" style="edgeStyle=orthogonalEdgeStyle;rounded=0;orthogonalLoop=1;jettySize=auto;html=1;shape=link;" edge="1" parent="1" source="XYXvDK_JES8hp7YrWyu7-2" target="XYXvDK_JES8hp7YrWyu7-3">
          <mxGeometry relative="1" as="geometry" />
        </mxCell>
        <mxCell id="XYXvDK_JES8hp7YrWyu7-2" value="The Supreme Pontiff, Azzer" style="rounded=0;whiteSpace=wrap;html=1;fillColor=#fad9d5;strokeColor=#ae4132;" vertex="1" parent="1">
          <mxGeometry x="320" y="40" width="160" height="40" as="geometry" />
        </mxCell>
        <mxCell id="XYXvDK_JES8hp7YrWyu7-6" value="" style="edgeStyle=orthogonalEdgeStyle;rounded=0;orthogonalLoop=1;jettySize=auto;html=1;shape=link;" edge="1" parent="1" source="XYXvDK_JES8hp7YrWyu7-3" target="XYXvDK_JES8hp7YrWyu7-5">
          <mxGeometry relative="1" as="geometry" />
        </mxCell>
        <mxCell id="XYXvDK_JES8hp7YrWyu7-8" value="" style="edgeStyle=orthogonalEdgeStyle;rounded=0;orthogonalLoop=1;jettySize=auto;html=1;shape=link;" edge="1" parent="1" source="XYXvDK_JES8hp7YrWyu7-3" target="XYXvDK_JES8hp7YrWyu7-7">
          <mxGeometry relative="1" as="geometry" />
        </mxCell>
        <mxCell id="XYXvDK_JES8hp7YrWyu7-3" value="The Nine&lt;br&gt;Cardinals" style="shape=trapezoid;perimeter=trapezoidPerimeter;whiteSpace=wrap;html=1;fixedSize=1;rounded=0;fillColor=#fad9d5;strokeColor=#ae4132;" vertex="1" parent="1">
          <mxGeometry x="340" y="120" width="120" height="60" as="geometry" />
        </mxCell>
        <mxCell id="XYXvDK_JES8hp7YrWyu7-14" value="" style="edgeStyle=orthogonalEdgeStyle;rounded=0;orthogonalLoop=1;jettySize=auto;html=1;shape=link;" edge="1" parent="1" source="XYXvDK_JES8hp7YrWyu7-5" target="XYXvDK_JES8hp7YrWyu7-13">
          <mxGeometry relative="1" as="geometry" />
        </mxCell>
        <mxCell id="XYXvDK_JES8hp7YrWyu7-5" value="High Bishop" style="shape=parallelogram;perimeter=parallelogramPerimeter;whiteSpace=wrap;html=1;fixedSize=1;fillColor=#fad9d5;strokeColor=#ae4132;rounded=0;" vertex="1" parent="1">
          <mxGeometry x="260" y="220" width="120" height="60" as="geometry" />
        </mxCell>
        <mxCell id="XYXvDK_JES8hp7YrWyu7-12" value="" style="edgeStyle=orthogonalEdgeStyle;rounded=0;orthogonalLoop=1;jettySize=auto;html=1;shape=link;" edge="1" parent="1" source="XYXvDK_JES8hp7YrWyu7-7" target="XYXvDK_JES8hp7YrWyu7-11">
          <mxGeometry relative="1" as="geometry" />
        </mxCell>
        <mxCell id="XYXvDK_JES8hp7YrWyu7-16" value="" style="edgeStyle=orthogonalEdgeStyle;rounded=0;orthogonalLoop=1;jettySize=auto;html=1;shape=link;" edge="1" parent="1" source="XYXvDK_JES8hp7YrWyu7-7">
          <mxGeometry relative="1" as="geometry">
            <mxPoint x="580" y="250" as="targetPoint" />
          </mxGeometry>
        </mxCell>
        <mxCell id="XYXvDK_JES8hp7YrWyu7-7" value="High Inquisitor" style="shape=parallelogram;perimeter=parallelogramPerimeter;whiteSpace=wrap;html=1;fixedSize=1;fillColor=#fad9d5;strokeColor=#ae4132;rounded=0;flipH=1;" vertex="1" parent="1">
          <mxGeometry x="420" y="220" width="120" height="60" as="geometry" />
        </mxCell>
        <mxCell id="XYXvDK_JES8hp7YrWyu7-21" value="" style="edgeStyle=orthogonalEdgeStyle;rounded=0;orthogonalLoop=1;jettySize=auto;html=1;shape=link;" edge="1" parent="1" source="XYXvDK_JES8hp7YrWyu7-11" target="XYXvDK_JES8hp7YrWyu7-20">
          <mxGeometry relative="1" as="geometry" />
        </mxCell>
        <mxCell id="XYXvDK_JES8hp7YrWyu7-35" value="" style="edgeStyle=orthogonalEdgeStyle;rounded=0;orthogonalLoop=1;jettySize=auto;html=1;entryX=0.25;entryY=0;entryDx=0;entryDy=0;shape=link;" edge="1" parent="1" source="XYXvDK_JES8hp7YrWyu7-11" target="XYXvDK_JES8hp7YrWyu7-17">
          <mxGeometry relative="1" as="geometry" />
        </mxCell>
        <mxCell id="XYXvDK_JES8hp7YrWyu7-11" value="Inquisitor" style="whiteSpace=wrap;html=1;fillColor=#fad9d5;strokeColor=#ae4132;rounded=0;" vertex="1" parent="1">
          <mxGeometry x="420" y="320" width="120" height="60" as="geometry" />
        </mxCell>
        <mxCell id="XYXvDK_JES8hp7YrWyu7-25" value="" style="edgeStyle=orthogonalEdgeStyle;rounded=0;orthogonalLoop=1;jettySize=auto;html=1;shape=link;" edge="1" parent="1" source="XYXvDK_JES8hp7YrWyu7-13" target="XYXvDK_JES8hp7YrWyu7-24">
          <mxGeometry relative="1" as="geometry" />
        </mxCell>
        <mxCell id="XYXvDK_JES8hp7YrWyu7-13" value="Bishop" style="whiteSpace=wrap;html=1;fillColor=#fad9d5;strokeColor=#ae4132;rounded=0;" vertex="1" parent="1">
          <mxGeometry x="260" y="320" width="120" height="60" as="geometry" />
        </mxCell>
        <mxCell id="XYXvDK_JES8hp7YrWyu7-15" value="Illrigger" style="whiteSpace=wrap;html=1;fillColor=#fad9d5;strokeColor=#ae4132;rounded=0;" vertex="1" parent="1">
          <mxGeometry x="580" y="220" width="120" height="60" as="geometry" />
        </mxCell>
        <mxCell id="XYXvDK_JES8hp7YrWyu7-17" value="Crusader" style="whiteSpace=wrap;html=1;fillColor=#fad9d5;strokeColor=#ae4132;rounded=0;" vertex="1" parent="1">
          <mxGeometry x="580" y="420" width="120" height="60" as="geometry" />
        </mxCell>
        <mxCell id="XYXvDK_JES8hp7YrWyu7-37" value="" style="edgeStyle=orthogonalEdgeStyle;rounded=0;orthogonalLoop=1;jettySize=auto;html=1;shape=link;" edge="1" parent="1" source="XYXvDK_JES8hp7YrWyu7-20" target="XYXvDK_JES8hp7YrWyu7-31">
          <mxGeometry relative="1" as="geometry" />
        </mxCell>
        <mxCell id="XYXvDK_JES8hp7YrWyu7-20" value="Acolyte" style="whiteSpace=wrap;html=1;fillColor=#fad9d5;strokeColor=#ae4132;rounded=0;" vertex="1" parent="1">
          <mxGeometry x="420" y="420" width="120" height="60" as="geometry" />
        </mxCell>
        <mxCell id="XYXvDK_JES8hp7YrWyu7-32" value="" style="edgeStyle=orthogonalEdgeStyle;rounded=0;orthogonalLoop=1;jettySize=auto;html=1;shape=link;" edge="1" parent="1" source="XYXvDK_JES8hp7YrWyu7-24" target="XYXvDK_JES8hp7YrWyu7-31">
          <mxGeometry relative="1" as="geometry" />
        </mxCell>
        <mxCell id="XYXvDK_JES8hp7YrWyu7-24" value="Priest" style="whiteSpace=wrap;html=1;fillColor=#fad9d5;strokeColor=#ae4132;rounded=0;" vertex="1" parent="1">
          <mxGeometry x="260" y="420" width="120" height="60" as="geometry" />
        </mxCell>
        <mxCell id="XYXvDK_JES8hp7YrWyu7-31" value="Deacon&amp;nbsp;" style="whiteSpace=wrap;html=1;fillColor=#fad9d5;strokeColor=#ae4132;rounded=0;" vertex="1" parent="1">
          <mxGeometry x="340" y="540" width="120" height="60" as="geometry" />
        </mxCell>
        <mxCell id="XYXvDK_JES8hp7YrWyu7-44" value="Pastor" style="whiteSpace=wrap;html=1;fillColor=#fad9d5;strokeColor=#ae4132;rounded=0;" vertex="1" parent="1">
          <mxGeometry x="100" y="320" width="120" height="60" as="geometry" />
        </mxCell>
      </root>
    </mxGraphModel>
  </diagram>
</mxfile>
